<?xml version="1.0" standalone="no"?>
<!DOCTYPE svg PUBLIC "-//W3C//DTD SVG 20010904//EN"
 "http://www.w3.org/TR/2001/REC-SVG-20010904/DTD/svg10.dtd">
<svg version="1.0" xmlns="http://www.w3.org/2000/svg"
 width="300.000000pt" height="300.000000pt" viewBox="0 0 300.000000 300.000000"
 preserveAspectRatio="xMidYMid meet">
<metadata>
Created by potrace 1.10, written by Peter Selinger 2001-2011
</metadata>
<g transform="translate(0.000000,300.000000) scale(0.100000,-0.100000)"
fill="#000000" stroke="none">
<path d="M1475 2993 c-32 -8 -41 -20 -89 -116 -57 -116 -154 -239 -253 -319
-43 -35 -96 -80 -120 -101 -30 -28 -71 -49 -140 -74 -248 -88 -351 -108 -525
-97 -105 7 -106 6 -132 -19 -39 -39 -34 -73 23 -158 97 -148 137 -252 172
-449 28 -154 28 -166 0 -320 -35 -197 -75 -301 -172 -449 -57 -85 -62 -119
-23 -158 26 -25 27 -26 132 -19 174 11 277 -9 525 -97 69 -25 110 -46 140 -74
24 -21 77 -66 120 -101 99 -80 196 -203 253 -319 25 -50 52 -97 60 -104 19
-15 89 -15 108 0 8 7 35 54 60 104 57 117 154 239 253 319 43 35 98 82 123
104 25 23 60 45 78 49 17 3 71 22 118 41 151 61 238 77 422 78 160 1 164 2
183 25 30 37 23 72 -30 152 -97 148 -137 252 -172 449 -28 154 -28 166 0 320
35 197 75 301 172 449 53 80 60 115 30 152 -19 23 -23 24 -183 25 -184 1 -271
17 -422 78 -47 19 -101 38 -118 41 -18 4 -53 26 -78 49 -25 22 -80 69 -123
104 -99 80 -196 202 -253 319 -25 50 -51 96 -57 101 -16 13 -58 20 -82 15z
m47 -40 c9 -10 28 -43 43 -73 75 -151 180 -274 374 -437 54 -46 93 -69 145
-87 39 -14 109 -38 156 -55 130 -46 254 -65 384 -57 94 6 111 4 127 -10 26
-24 24 -31 -22 -99 -94 -140 -143 -269 -180 -477 -28 -153 -28 -165 -1 -316
37 -203 89 -343 169 -455 48 -68 55 -90 36 -117 -15 -21 -20 -21 -117 -15
-126 8 -265 -11 -391 -55 -49 -17 -122 -43 -161 -56 -52 -18 -90 -41 -145 -87
-196 -165 -298 -284 -377 -443 -17 -33 -38 -66 -46 -73 -24 -20 -48 6 -97 105
-72 142 -157 240 -358 411 -55 46 -91 68 -145 87 -39 13 -111 39 -161 56 -125
43 -265 63 -388 55 -86 -6 -101 -4 -118 11 -10 9 -19 23 -19 29 0 7 23 47 51
90 91 138 133 252 171 458 27 151 27 163 0 314 -38 206 -80 320 -171 458 -56
85 -59 96 -35 120 14 13 33 15 128 9 132 -8 255 11 386 57 47 17 117 41 156
55 55 19 90 41 150 92 205 175 279 261 350 402 35 71 70 120 84 120 4 0 14 -8
22 -17z"/>
<path d="M1459 2713 c-14 -15 -48 -57 -76 -93 -29 -36 -79 -92 -112 -125 -62
-60 -75 -91 -47 -114 8 -7 51 -30 97 -52 143 -69 252 -206 290 -364 17 -72 23
-81 87 -121 31 -20 80 -59 109 -86 62 -61 87 -60 134 5 108 146 124 313 46
470 -32 63 -85 119 -227 240 -41 35 -111 108 -156 163 -44 54 -89 100 -100
102 -11 2 -30 -9 -45 -25z m88 -66 c49 -73 160 -188 253 -262 120 -96 169
-171 191 -289 20 -109 -15 -235 -91 -325 l-29 -34 -28 33 c-46 55 -75 80 -129
111 -48 27 -52 33 -64 87 -42 189 -197 370 -359 419 -31 9 -58 18 -60 19 -2 2
14 18 35 36 68 59 143 141 187 205 23 34 44 62 47 62 3 0 24 -28 47 -62z"/>
<path d="M970 2275 c-25 -7 -97 -32 -160 -54 -66 -23 -161 -48 -220 -57 -151
-23 -150 -22 -162 -49 -9 -21 -5 -38 25 -112 20 -49 43 -113 51 -143 35 -125
42 -144 62 -157 18 -12 25 -10 55 11 180 131 342 163 541 110 l67 -18 70 36
c38 20 95 42 125 48 56 11 86 36 86 71 0 9 -16 48 -35 86 -44 87 -122 163
-211 205 -56 26 -80 31 -158 34 -59 2 -107 -1 -136 -11z m241 -45 c111 -35
193 -111 245 -228 13 -29 24 -54 24 -56 0 -3 -19 -7 -42 -11 -58 -10 -136 -40
-177 -68 l-34 -23 -56 19 c-80 28 -237 34 -320 12 -85 -22 -173 -67 -225 -116
-24 -21 -46 -39 -50 -39 -3 0 -6 13 -6 29 0 44 -47 198 -85 280 -19 40 -35 74
-35 76 0 1 35 5 78 9 103 8 217 37 343 85 57 21 115 41 129 44 62 11 152 6
211 -13z"/>
<path d="M2137 2203 c-13 -15 -14 -36 -10 -124 6 -112 -4 -176 -40 -259 -25
-58 -94 -154 -146 -205 -38 -37 -41 -43 -41 -95 0 -31 -9 -93 -21 -139 -20
-78 -20 -83 -3 -102 36 -39 138 -50 237 -24 81 21 132 50 195 108 89 85 121
154 148 316 21 127 48 225 90 323 19 44 34 86 34 93 0 31 -40 52 -113 60 -40
3 -123 20 -185 36 -134 34 -125 34 -145 12z m107 -44 c71 -23 213 -49 267 -49
22 0 39 -2 39 -5 0 -3 -13 -31 -29 -63 -42 -84 -79 -210 -102 -346 -23 -138
-55 -217 -117 -287 -77 -87 -216 -138 -336 -124 -33 3 -63 8 -67 11 -4 2 2 28
13 56 13 33 22 83 24 131 l3 78 70 75 c119 127 167 255 159 423 -3 53 -9 105
-13 115 -7 17 -6 18 11 11 10 -4 46 -16 78 -26z"/>
<path d="M1390 1783 c-63 -23 -151 -113 -173 -177 -21 -62 -22 -149 -1 -209
21 -63 92 -140 160 -173 191 -94 424 58 424 276 0 122 -86 246 -197 284 -58
20 -154 19 -213 -1z m215 -42 c100 -45 155 -131 155 -240 -1 -153 -108 -261
-260 -261 -152 0 -260 108 -260 260 0 107 49 188 142 234 65 32 161 35 223 7z"/>
<path d="M1459 1575 c-14 -8 -32 -28 -39 -45 -17 -42 5 -91 49 -110 67 -28
139 43 111 110 -12 30 -55 60 -82 60 -7 -1 -25 -7 -39 -15z m71 -50 c26 -32
-13 -81 -47 -59 -35 22 -23 74 17 74 10 0 23 -7 30 -15z"/>
<path d="M902 1749 c-120 -23 -245 -120 -300 -232 -32 -66 -39 -90 -72 -259
-22 -120 -38 -171 -82 -272 -47 -109 -33 -127 115 -146 48 -6 126 -22 172 -35
103 -30 110 -30 128 -5 11 16 13 46 9 134 -4 98 -2 122 17 182 31 94 69 158
143 239 l63 68 6 81 c4 45 15 107 25 139 18 57 18 58 -3 78 -35 35 -126 47
-221 28z m198 -44 c4 -3 -1 -29 -12 -57 -13 -33 -22 -83 -24 -131 l-3 -78 -70
-75 c-111 -118 -161 -243 -161 -399 0 -44 4 -96 10 -114 5 -19 9 -36 7 -37 -1
-1 -34 8 -73 22 -78 26 -226 54 -285 54 -22 0 -39 2 -39 5 0 3 13 31 29 63 42
84 79 210 102 346 23 138 55 217 117 286 45 52 124 98 197 117 46 12 185 10
205 -2z"/>
<path d="M2348 1266 c-87 -60 -137 -84 -210 -101 -88 -21 -177 -19 -280 7
l-88 21 -69 -36 c-39 -19 -95 -41 -126 -47 -74 -15 -93 -42 -75 -103 30 -102
127 -208 238 -260 63 -30 74 -32 177 -32 106 0 114 2 219 43 121 48 235 77
340 88 69 7 106 27 106 57 0 8 -18 56 -39 108 -22 52 -47 126 -56 164 -33 141
-49 151 -137 91z m82 -15 c0 -44 47 -198 85 -280 19 -40 35 -74 35 -76 0 -1
-35 -5 -77 -9 -105 -8 -218 -37 -349 -87 -179 -68 -300 -64 -424 12 -63 39
-113 97 -151 175 -16 34 -29 64 -29 67 0 3 19 8 43 12 57 10 135 40 176 68
l34 23 56 -20 c80 -28 236 -33 321 -11 83 21 187 76 230 120 41 43 50 44 50 6z"/>
<path d="M1073 1254 c-72 -77 -120 -215 -110 -320 13 -139 79 -244 227 -364
95 -77 146 -129 242 -250 62 -77 76 -75 156 25 35 44 95 112 134 151 94 96 92
104 -32 168 -159 83 -252 196 -299 365 -23 84 -31 95 -83 122 -20 10 -66 46
-101 79 -36 33 -72 60 -82 60 -10 0 -33 -16 -52 -36z m67 -2 c0 -17 98 -106
146 -133 48 -27 52 -32 64 -87 42 -189 197 -370 359 -419 31 -9 58 -18 60 -19
2 -2 -14 -17 -35 -35 -65 -55 -142 -141 -187 -206 -23 -34 -44 -62 -47 -62 -3
0 -24 28 -48 63 -50 75 -156 184 -251 260 -121 97 -170 171 -192 290 -15 80
-3 160 35 236 38 75 96 143 96 112z"/>
</g>
</svg>
