<svg version="1.1" id="Layer_1" xmlns="http://www.w3.org/2000/svg" xmlns:xlink="http://www.w3.org/1999/xlink" x="0px" y="0px"
	 width="100%" viewBox="0 0 3840 2160" enable-background="new 0 0 3840 2160" xml:space="preserve">
<path fill="#000000" opacity="1.000000" stroke="none" 
	d="
M2794.000000,2162.000000 
	C1862.666870,2162.000000 932.333679,2162.000000 2.000374,2162.000000 
	C2.000250,1442.000244 2.000250,722.000610 2.000125,2.000664 
	C1281.999512,2.000443 2561.999023,2.000443 3841.999023,2.000221 
	C3841.999268,721.999329 3841.999268,1441.998657 3841.999512,2161.999023 
	C3493.000000,2162.000000 3144.000000,2162.000000 2794.000000,2162.000000 
M2375.263672,1279.714722 
	C2375.556152,1278.475464 2375.848633,1277.236206 2377.326904,1275.166504 
	C2380.250488,1268.328247 2375.583252,1267.523193 2370.263916,1266.254517 
	C2367.148193,1270.712158 2364.264893,1275.068604 2361.149414,1279.252563 
	C2351.046875,1292.820068 2340.262939,1305.622314 2322.199463,1310.640625 
	C2321.159424,1309.832397 2319.909912,1309.191284 2319.112061,1308.190063 
	C2311.433594,1298.554688 2303.923096,1288.784668 2296.190918,1279.193115 
	C2268.375488,1244.687866 2240.527588,1210.205933 2206.364990,1181.530396 
	C2205.662842,1180.941162 2205.398438,1179.830933 2204.771729,1178.671021 
	C2206.688965,1172.564087 2208.652588,1166.308716 2210.869141,1159.247681 
	C2204.381836,1157.332520 2198.681396,1155.707153 2193.015869,1153.967041 
	C2165.876221,1145.632202 2139.594482,1135.519043 2116.019043,1119.158081 
	C2079.945312,1094.123169 2043.620361,1069.450562 2007.499512,1042.549438 
	C2007.672241,1041.879028 2007.845093,1041.208496 2009.531738,1041.065430 
	C2010.579102,1041.853882 2011.513428,1042.944214 2012.690918,1043.385620 
	C2033.484009,1051.178345 2054.390625,1058.674316 2075.106445,1066.665771 
	C2126.273438,1086.404175 2177.365479,1106.337891 2228.460938,1126.261841 
	C2234.854248,1128.754883 2241.110352,1130.529907 2247.382568,1126.214355 
	C2251.568604,1123.333984 2255.489502,1124.051758 2259.382812,1126.778320 
	C2267.546143,1132.495117 2276.161865,1137.664307 2283.796875,1144.014282 
	C2295.817871,1154.011841 2305.255127,1165.852173 2304.585938,1182.563843 
	C2308.880615,1184.727173 2312.069580,1183.864014 2314.929199,1180.932617 
	C2317.019531,1178.789795 2319.190430,1176.725708 2321.334473,1174.635498 
	C2347.302734,1149.317993 2373.262939,1123.960083 2403.081787,1103.085571 
	C2409.502197,1098.591064 2417.000244,1095.636597 2424.584229,1093.284424 
	C2427.620117,1099.937378 2430.824219,1106.519409 2433.665283,1113.254517 
	C2457.466553,1169.678711 2478.867676,1226.997314 2497.011230,1285.495117 
	C2522.389648,1367.320068 2542.894043,1450.213501 2550.395264,1535.850952 
	C2551.125488,1544.186279 2554.923584,1549.269897 2563.466309,1551.723999 
	C2563.466309,1544.770630 2563.466309,1538.303955 2563.522217,1530.041504 
	C2562.782959,1519.966675 2562.043701,1509.891846 2561.437744,1498.191284 
	C2559.106445,1469.329102 2556.810791,1440.463867 2554.436279,1411.605225 
	C2548.238037,1336.282959 2538.942139,1261.350952 2526.252686,1186.838745 
	C2515.409180,1123.166382 2502.128418,1060.048462 2481.765137,998.668518 
	C2475.085693,978.535950 2466.366699,959.080078 2458.268066,937.937683 
	C2449.909668,936.257324 2447.763428,937.145752 2445.224365,943.697083 
	C2441.379150,953.618774 2438.055908,963.764404 2433.777100,973.492188 
	C2421.813477,1000.691528 2405.531250,1024.742554 2381.410156,1042.808838 
	C2377.483154,1045.749878 2373.526611,1048.651245 2368.524170,1051.993530 
	C2367.839600,1052.324951 2367.155029,1052.656372 2365.291260,1052.572876 
	C2363.986572,1053.472412 2362.681885,1054.372070 2359.885254,1055.757446 
	C2352.577148,1057.601562 2345.356201,1060.173950 2337.933838,1061.062744 
	C2331.818359,1061.794922 2325.226562,1061.480957 2319.255859,1059.989868 
	C2292.791260,1053.380737 2266.554932,1045.851807 2240.059570,1039.376099 
	C2231.136475,1037.195312 2224.837402,1033.615845 2222.950439,1024.169678 
	C2222.711182,1022.971619 2221.647217,1021.938232 2220.783936,1020.533081 
	C2185.034912,1019.637573 2149.886719,1013.908997 2114.946777,1006.939575 
	C2080.290283,1000.026672 2045.815796,992.256287 2012.097168,981.337402 
	C2013.466553,980.207275 2014.675293,979.898865 2015.901733,979.698914 
	C2062.375977,972.121948 2109.140381,968.497742 2156.235596,969.539917 
	C2178.260742,970.027283 2200.179199,971.916809 2221.521240,977.550415 
	C2229.428711,979.637756 2236.132812,978.926025 2243.657227,975.857727 
	C2269.083252,965.489929 2292.517334,968.833679 2312.818359,988.164062 
	C2315.691895,990.900391 2317.998047,994.232788 2319.496094,996.015015 
	C2327.695801,996.909851 2330.175781,993.323364 2332.369873,988.218933 
	C2347.633545,952.709961 2365.167969,918.362732 2386.313477,885.958618 
	C2400.371338,864.415527 2415.873047,844.024902 2436.045654,827.694214 
	C2441.981689,822.888550 2447.989502,817.993164 2456.680176,818.395691 
	C2459.187988,821.916077 2461.717041,825.421753 2464.200439,828.959167 
	C2503.788086,885.343323 2541.068359,943.221863 2575.875977,1002.668335 
	C2624.854492,1086.315918 2669.913330,1171.872437 2701.377930,1263.950806 
	C2704.770508,1273.877563 2707.641602,1275.352905 2720.178467,1274.069214 
	C2718.875244,1269.290771 2717.610840,1264.654419 2716.172852,1258.353271 
	C2711.675537,1238.901245 2707.577881,1219.346313 2702.607422,1200.015991 
	C2686.435547,1137.125000 2667.447510,1075.115845 2644.502441,1014.318176 
	C2618.124512,944.425537 2587.432617,876.635437 2548.239014,812.901306 
	C2522.511719,771.064880 2493.418945,731.805603 2458.387939,697.182312 
	C2455.599854,694.426697 2452.499512,691.987488 2449.915039,689.725525 
	C2441.769775,693.895691 2438.573730,700.379395 2435.736084,707.860168 
	C2429.860352,723.349487 2423.485596,738.717102 2416.211914,753.595093 
	C2399.450928,787.879578 2378.759277,819.513000 2350.714600,845.854126 
	C2325.109619,869.903931 2295.897949,886.675781 2260.506104,891.606018 
	C2249.599121,893.125488 2239.409912,894.161621 2231.145752,884.826904 
	C2227.504883,880.714355 2223.224854,881.485413 2218.474609,883.617432 
	C2208.771240,887.972229 2198.985107,892.275696 2188.917969,895.664246 
	C2132.713867,914.582153 2074.723389,921.127441 2015.678711,919.962158 
	C2014.605957,919.940979 2013.541504,919.495605 2010.683228,918.833435 
	C2014.362061,916.831055 2016.225464,915.574951 2018.262695,914.745483 
	C2039.237671,906.204773 2060.247803,897.750854 2081.234619,889.238770 
	C2133.702881,867.957825 2186.173828,846.683472 2238.607178,825.317017 
	C2242.389404,823.775879 2245.876465,821.510986 2251.175293,818.691650 
	C2246.286621,817.175537 2243.458008,816.319336 2240.642822,815.421814 
	C2225.288086,810.526367 2210.669922,804.269409 2199.012207,792.631348 
	C2188.816650,782.453308 2183.748535,770.240723 2184.318115,755.737549 
	C2184.598389,748.608582 2186.757080,742.683167 2194.885254,739.656555 
	C2196.075195,738.597900 2197.265137,737.539246 2199.169922,736.154785 
	C2199.169922,736.154785 2199.776855,735.656006 2201.287842,735.875977 
	C2204.650146,734.466797 2207.907227,732.658813 2211.397949,731.735474 
	C2217.746094,730.056274 2224.188721,728.075745 2230.673096,727.724854 
	C2240.181152,727.210449 2245.252197,731.363708 2248.495117,740.456604 
	C2249.568115,743.465332 2250.302246,746.594849 2251.730225,751.531738 
	C2255.068604,747.551941 2257.449951,744.713074 2260.570801,740.757568 
	C2267.628418,732.362427 2274.052490,723.320740 2281.850098,715.680908 
	C2321.380371,676.949341 2370.008789,658.435181 2424.314453,653.816650 
	C2433.410645,653.043152 2440.123291,650.183411 2446.342529,643.025452 
	C2445.279053,639.589844 2444.386963,635.719910 2442.904297,632.091248 
	C2437.303955,618.385803 2428.876221,606.430420 2419.402344,595.180603 
	C2391.209961,561.703918 2356.629150,535.781189 2320.476562,511.741791 
	C2279.937988,484.785797 2237.275391,461.497833 2193.308594,440.808167 
	C2154.813721,422.693359 2115.443115,406.438904 2075.647217,388.215057 
	C2067.682617,385.220154 2059.718018,382.225281 2051.769531,379.236511 
	C2046.989014,392.167694 2047.023193,392.322876 2056.916504,397.459656 
	C2096.263916,417.889496 2134.510498,440.213531 2171.495361,464.651978 
	C2212.701904,491.879761 2252.358887,521.106079 2286.675293,556.936829 
	C2303.563965,574.570984 2318.974609,593.307007 2327.526123,617.345154 
	C2290.673584,636.144348 2253.545898,654.021729 2209.999023,651.952393 
	C2208.602783,655.353271 2206.558350,658.583374 2206.005615,662.051331 
	C2204.925781,668.822571 2201.158447,673.181824 2194.988037,674.872864 
	C2187.045166,677.049438 2178.911133,679.163757 2170.746582,679.761902 
	C2154.363525,680.962158 2138.280762,677.754333 2120.842285,673.903442 
	C2115.221680,673.107788 2113.185303,676.159912 2112.682617,681.536743 
	C2138.573486,702.301331 2154.115479,727.547363 2146.115234,763.817993 
	C2143.954834,778.497742 2135.960938,790.091858 2127.142334,801.470337 
	C2121.121826,799.300659 2115.853516,797.402100 2109.810791,795.224487 
	C2107.521973,798.742859 2105.345215,802.000854 2103.257324,805.314697 
	C2096.623047,815.844482 2088.883057,825.351074 2078.064941,831.867188 
	C2071.978027,835.533691 2065.507812,837.599731 2057.919678,835.197449 
	C2058.298584,828.403564 2058.658936,821.938721 2059.116211,813.739929 
	C2054.892578,816.759338 2051.964844,818.765381 2049.128662,820.894043 
	C2031.003784,834.498901 2012.539917,847.575867 1991.737793,856.887573 
	C1987.075317,858.974548 1982.387817,861.672241 1975.900513,859.977417 
	C1977.840210,856.565430 1979.394409,853.690002 1981.078369,850.892761 
	C1990.349976,835.492065 1999.470581,819.995544 2009.031616,804.776001 
	C2013.131226,798.250183 2013.583252,792.071228 2010.797852,784.993896 
	C2007.390137,776.335754 2004.988647,767.279541 2001.537109,758.641174 
	C1992.598511,736.270569 1981.513062,715.082520 1965.303345,696.978027 
	C1962.354004,693.684082 1958.790405,690.939880 1955.510498,687.941833 
	C1954.921143,688.367676 1954.331665,688.793518 1953.742188,689.219360 
	C1954.917603,692.923767 1955.851929,696.726135 1957.310547,700.315430 
	C1963.618286,715.838501 1968.331665,731.752136 1969.581421,748.545105 
	C1970.335815,758.682495 1968.337524,768.466614 1960.021240,774.662598 
	C1948.377319,783.337891 1935.749756,790.692627 1923.691284,798.515930 
	C1912.300415,791.307251 1901.908203,784.713318 1891.498169,778.147644 
	C1881.915405,772.103760 1877.700073,763.368896 1877.742065,752.122925 
	C1877.809570,734.092346 1883.312500,717.396179 1889.578003,700.823730 
	C1891.010986,697.033691 1891.953613,693.058289 1893.121826,689.168152 
	C1892.309204,688.711853 1891.496704,688.255493 1890.684082,687.799133 
	C1885.438232,693.573120 1879.766479,699.018982 1875.021606,705.178772 
	C1856.265381,729.527527 1844.923340,757.493042 1835.726807,786.530212 
	C1833.618652,793.186951 1834.381714,798.665344 1837.964233,804.446594 
	C1847.783325,820.291321 1857.352661,836.291443 1866.931274,852.283569 
	C1868.461670,854.838745 1869.530273,857.670410 1870.812378,860.374207 
	C1863.568115,859.676575 1857.858521,857.979309 1852.530884,855.470947 
	C1832.848145,846.204285 1815.201660,833.682861 1797.882568,820.666870 
	C1795.075562,818.557312 1792.105469,816.664368 1787.728394,813.650635 
	C1788.286011,822.012207 1788.719238,828.509399 1789.165161,835.196777 
	C1781.764648,837.679749 1775.250244,835.521240 1769.115479,831.863220 
	C1758.266479,825.394104 1750.564453,815.866882 1743.900879,805.359253 
	C1741.819580,802.077393 1739.461548,798.971130 1737.252441,795.816284 
	C1731.122803,797.838623 1725.814331,799.590027 1719.873535,801.549988 
	C1717.738159,798.691528 1715.630371,796.190918 1713.871582,793.465088 
	C1699.625977,771.386047 1694.462280,747.742126 1702.881836,721.178467 
	C1709.371582,704.685303 1721.207153,692.244934 1734.185059,681.525146 
	C1732.720459,676.189697 1731.188599,672.613403 1724.126465,674.607605 
	C1714.286011,676.199585 1704.486084,678.706909 1694.594482,679.144470 
	C1683.051392,679.654968 1671.298950,679.239624 1659.881592,677.562073 
	C1650.965454,676.252014 1642.715088,672.699219 1641.847168,660.924500 
	C1641.316528,653.725769 1637.614746,651.601013 1630.382446,651.929504 
	C1615.225464,652.617981 1600.599976,649.928406 1586.137939,645.653198 
	C1563.079468,638.836548 1541.431763,628.707214 1519.380127,616.539551 
	C1522.338623,603.878662 1530.167480,593.842834 1537.602905,583.734070 
	C1557.868896,556.181763 1583.070068,533.489075 1609.641479,512.279724 
	C1658.382690,473.374390 1711.143433,440.587189 1765.657104,410.512695 
	C1776.360718,404.607666 1787.143921,398.847076 1798.321655,392.785980 
	C1797.364746,388.051147 1796.555176,384.045898 1795.499878,378.824036 
	C1789.443481,381.529816 1784.727295,383.636841 1778.538330,386.058777 
	C1701.526611,416.897064 1626.141235,451.113159 1554.968994,494.031464 
	C1516.395630,517.291870 1479.451172,542.797852 1447.061401,574.349304 
	C1430.047363,590.922913 1414.619995,608.807678 1404.766968,630.760803 
	C1402.934570,634.843323 1402.055664,639.353699 1400.970459,642.901794 
	C1408.183105,650.728638 1415.955322,653.067810 1425.067993,653.848999 
	C1446.966431,655.726379 1468.491455,660.176697 1489.085938,667.944763 
	C1527.256104,682.342163 1559.977905,704.368896 1584.275146,737.828064 
	C1587.226318,741.892029 1591.016113,745.346985 1594.898193,749.612671 
	C1595.575684,746.999207 1595.861694,745.696167 1596.250732,744.424683 
	C1601.111450,728.538208 1608.041382,724.381409 1624.450195,727.205994 
	C1636.570068,729.292358 1646.834961,735.370056 1656.885132,741.926453 
	C1660.486938,744.276184 1661.759033,747.871765 1662.196045,752.127808 
	C1664.270264,772.330505 1656.318481,787.807129 1640.211426,799.469910 
	C1629.570679,807.174744 1617.557617,812.013123 1605.078247,815.835571 
	C1602.810059,816.530396 1600.671875,817.650391 1597.081787,819.159058 
	C1601.456543,821.437500 1604.270264,823.178711 1607.287476,824.429382 
	C1625.746948,832.081421 1644.237183,839.659851 1662.745605,847.192932 
	C1718.270142,869.791992 1773.812134,892.348206 1829.324219,914.977539 
	C1831.497070,915.863281 1833.434204,917.327148 1837.234619,919.544922 
	C1833.350830,919.813782 1831.754395,919.997253 1830.155518,920.024170 
	C1799.449097,920.540100 1768.900879,918.870789 1738.467407,914.447388 
	C1702.054199,909.154907 1666.487061,900.871399 1632.925171,885.497375 
	C1625.415771,882.057495 1619.552490,881.324707 1613.177124,887.361389 
	C1609.665161,890.686829 1605.494629,893.471313 1599.824951,893.000305 
	C1576.646484,891.075073 1554.498779,885.676270 1534.197144,874.014282 
	C1507.197510,858.504822 1485.197998,837.393799 1466.742798,812.527954 
	C1442.812134,780.284546 1424.503784,745.023376 1411.187134,707.163879 
	C1408.583008,699.760437 1404.882568,693.418335 1396.599365,690.301453 
	C1392.698120,693.841431 1388.593872,697.240662 1384.859863,701.007141 
	C1362.290649,723.772461 1342.222534,748.623291 1323.829102,774.840942 
	C1279.231445,838.409180 1245.160034,907.568970 1216.116455,979.298523 
	C1180.952759,1066.142700 1154.020020,1155.588623 1133.160522,1246.890625 
	C1131.383545,1254.668701 1129.835449,1262.500854 1128.291626,1270.329712 
	C1127.755493,1273.048706 1128.236572,1275.122070 1133.397217,1274.130371 
	C1140.023315,1274.370972 1143.584351,1271.098267 1145.588745,1264.813354 
	C1149.221436,1253.422852 1153.222168,1242.134033 1157.495361,1230.965942 
	C1177.840576,1177.792847 1202.450684,1126.573730 1229.429443,1076.505371 
	C1272.048340,997.411194 1319.300171,921.133789 1370.220703,847.118652 
	C1376.958984,837.324280 1383.411011,827.333008 1391.531250,817.524170 
	C1395.501343,819.103394 1400.145386,819.850586 1403.315430,822.417786 
	C1412.853638,830.142395 1422.643066,837.826294 1430.855713,846.869141 
	C1459.086792,877.954102 1479.202271,914.400818 1497.839233,951.683105 
	C1504.963867,965.935425 1511.386353,980.538635 1517.885742,994.461121 
	C1525.701294,997.945740 1529.520508,992.796631 1533.794922,988.638245 
	C1553.911255,969.067688 1577.256836,965.393921 1602.803955,975.602051 
	C1610.333008,978.610474 1617.241577,979.398987 1625.043213,977.501648 
	C1649.109741,971.648865 1673.623291,969.755676 1698.359741,969.422485 
	C1730.076416,968.995300 1761.627319,971.043518 1793.126953,974.356384 
	C1800.080078,975.087708 1807.007690,976.084961 1813.930542,977.075439 
	C1820.839600,978.063904 1827.727783,979.197571 1834.625122,980.267578 
	C1834.637939,981.090820 1834.650757,981.914001 1834.663696,982.737183 
	C1766.267822,1000.633789 1697.624268,1017.237000 1626.595947,1020.809326 
	C1625.749390,1022.265686 1624.740601,1023.335632 1624.473511,1024.566528 
	C1622.501465,1033.655029 1616.286499,1036.995850 1607.721558,1039.085815 
	C1582.518921,1045.235718 1557.367554,1051.697998 1532.492554,1059.042236 
	C1521.064697,1062.416260 1510.223267,1062.138184 1499.097412,1059.262085 
	C1494.271362,1058.014526 1489.545532,1056.378662 1484.199707,1053.716187 
	C1461.753784,1042.899292 1444.752075,1026.123535 1431.077026,1005.579956 
	C1418.659546,986.925720 1409.953491,966.605530 1403.119751,945.374390 
	C1400.811646,938.203613 1400.656128,938.253662 1390.594482,938.008606 
	C1388.303345,942.404114 1385.696899,946.666077 1383.769897,951.215820 
	C1365.831421,993.569275 1353.301880,1037.670776 1342.698364,1082.289429 
	C1327.553833,1146.016479 1316.786865,1210.581787 1308.254272,1275.499146 
	C1303.791992,1309.449219 1299.537354,1343.459717 1296.540283,1377.561768 
	C1291.911133,1430.230713 1288.441040,1483.001465 1283.885742,1537.444824 
	C1283.885742,1542.187134 1283.885742,1546.929565 1283.885742,1552.116821 
	C1293.942139,1548.754639 1297.296997,1542.411133 1297.849731,1533.552368 
	C1298.512573,1522.928101 1299.358154,1512.253662 1301.133423,1501.771851 
	C1306.187378,1471.932617 1311.268433,1442.082642 1317.228516,1412.415649 
	C1327.068970,1363.431885 1340.813110,1315.424927 1356.551392,1268.061890 
	C1368.817749,1231.147705 1382.312134,1194.620850 1396.103760,1158.241333 
	C1404.584595,1135.870728 1414.652100,1114.101318 1425.452148,1092.086670 
	C1429.303345,1094.000488 1433.553833,1095.382080 1436.937012,1097.919800 
	C1451.812622,1109.077759 1467.006592,1119.916382 1481.008911,1132.106934 
	C1498.305054,1147.165039 1514.597290,1163.382568 1531.177002,1179.251953 
	C1534.738403,1182.660889 1537.986816,1185.718994 1543.884033,1182.599731 
	C1542.386719,1170.327393 1548.256470,1160.463379 1556.300659,1151.626099 
	C1566.037354,1140.929688 1577.899902,1132.976440 1590.378662,1125.850830 
	C1593.594971,1124.014160 1596.611694,1123.750854 1599.709229,1125.876831 
	C1606.247559,1130.364624 1612.713135,1128.941162 1619.549683,1126.260254 
	C1661.017944,1109.999390 1702.549316,1093.899048 1744.085571,1077.812134 
	C1773.835083,1066.290161 1803.625000,1054.872681 1836.977783,1043.771240 
	C1838.141479,1044.063110 1839.305176,1044.355103 1839.227295,1045.804321 
	C1808.684448,1066.461670 1777.524292,1086.275391 1747.786499,1108.033081 
	C1722.253296,1126.714355 1695.063965,1141.333862 1665.012573,1150.842896 
	C1656.201538,1153.630981 1647.346802,1156.280640 1638.103149,1159.119263 
	C1639.978638,1166.382568 1641.688354,1173.003540 1643.419556,1179.707642 
	C1636.446167,1186.035278 1629.628540,1191.842896 1623.236450,1198.086182 
	C1592.722046,1227.889282 1566.051392,1261.031372 1539.698486,1294.455933 
	C1535.023193,1300.385742 1529.597900,1305.724365 1523.305542,1310.323486 
	C1516.805786,1306.491699 1509.478271,1303.570190 1504.013184,1298.600708 
	C1496.969971,1292.196289 1491.351440,1284.206543 1485.254639,1276.788452 
	C1482.578857,1273.532593 1480.237305,1270.001831 1477.942261,1266.866821 
	C1469.865845,1269.744141 1469.865845,1269.744141 1471.968018,1277.541748 
	C1473.286499,1281.657593 1474.519653,1285.803101 1475.936646,1289.884766 
	C1493.051758,1339.184204 1510.230103,1388.461914 1527.318237,1437.770630 
	C1542.228394,1480.793823 1557.021729,1523.857544 1571.909790,1566.888428 
	C1585.273682,1605.513794 1598.678223,1644.125122 1612.099487,1682.730713 
	C1622.685425,1713.181030 1633.324097,1743.613037 1643.746460,1775.486572 
	C1645.036133,1778.265259 1645.034790,1781.886963 1648.443604,1783.505005 
	C1652.706909,1777.304077 1653.495728,1771.263794 1651.926392,1764.228271 
	C1637.960938,1701.622192 1623.663574,1639.079956 1610.698730,1576.264038 
	C1600.554932,1527.116577 1591.858154,1477.661255 1583.141113,1428.232910 
	C1579.496826,1407.568115 1577.821045,1386.571655 1581.664185,1365.660767 
	C1583.028320,1358.237793 1585.559204,1351.029297 1588.300903,1342.566895 
	C1598.702637,1324.302490 1614.368164,1314.083618 1635.752319,1311.183960 
	C1637.081665,1324.985229 1634.555176,1338.383545 1637.122803,1351.649658 
	C1639.925903,1349.031982 1641.850952,1346.353638 1643.537964,1343.533081 
	C1651.058228,1330.959106 1658.301758,1318.215088 1666.022827,1305.766602 
	C1702.120605,1247.568726 1743.175171,1193.203247 1791.266357,1144.293213 
	C1812.302612,1122.898682 1834.427979,1102.739136 1858.387939,1084.651978 
	C1861.053833,1082.639648 1863.414429,1079.313721 1868.584229,1080.354492 
	C1867.424072,1082.982178 1866.715210,1085.052612 1865.653809,1086.922729 
	C1845.620605,1122.218994 1825.625977,1157.537720 1805.414551,1192.731934 
	C1801.161377,1200.137939 1798.449829,1207.180664 1800.219482,1216.209961 
	C1809.238770,1262.230225 1817.772827,1308.346191 1826.355347,1354.451172 
	C1833.235596,1391.411011 1839.893799,1428.412109 1846.737427,1465.378784 
	C1856.547119,1518.366455 1866.408813,1571.344482 1876.315063,1624.314087 
	C1878.104980,1633.884888 1880.215820,1643.395630 1882.178467,1652.933960 
	C1885.213745,1636.111328 1886.581665,1619.522217 1888.111938,1602.947998 
	C1889.795776,1584.711060 1891.504639,1566.474609 1893.459229,1548.265381 
	C1894.223999,1541.141968 1895.869873,1539.264282 1902.795898,1539.077515 
	C1917.111206,1538.691528 1931.446167,1538.885498 1945.770264,1539.064331 
	C1950.658691,1539.125366 1953.922729,1541.580688 1954.429077,1546.876343 
	C1954.650635,1549.193359 1955.232056,1551.476929 1955.438843,1553.794434 
	C1957.037598,1571.705566 1958.525635,1589.626953 1960.166260,1607.534302 
	C1961.503540,1622.129517 1963.004395,1636.709717 1964.432861,1651.296631 
	C1967.538208,1644.971069 1969.051147,1638.591431 1970.239868,1632.151855 
	C1977.065308,1595.182007 1983.727295,1558.181763 1990.607666,1521.222290 
	C2001.748657,1461.376465 2013.062622,1401.562866 2024.213257,1341.718872 
	C2031.646851,1301.823608 2038.350098,1261.779907 2046.616333,1222.059937 
	C2049.133301,1209.965088 2047.375610,1200.462524 2041.306274,1190.125000 
	C2019.991577,1153.821045 1999.351929,1117.120972 1978.359497,1080.402710 
	C1984.657227,1080.873901 1984.654419,1080.877563 1990.000854,1084.965820 
	C2040.621704,1123.675659 2083.602295,1169.899902 2122.562500,1220.038208 
	C2152.036133,1257.967896 2178.421631,1297.970825 2202.178711,1339.718018 
	C2204.537842,1343.863647 2207.413574,1347.715088 2210.049805,1351.703125 
	C2210.579102,1351.476318 2211.108643,1351.249512 2211.638184,1351.022705 
	C2211.638184,1337.979858 2211.638184,1324.936890 2211.638184,1310.861816 
	C2215.453613,1311.598633 2218.656006,1312.045898 2221.767334,1312.846313 
	C2239.266357,1317.346680 2251.631348,1328.346924 2260.183594,1345.231201 
	C2269.399658,1366.414062 2270.023438,1388.596436 2266.970459,1410.942383 
	C2263.683105,1435.003418 2260.342285,1459.107544 2255.605225,1482.910400 
	C2242.421143,1549.156372 2228.640625,1615.285156 2214.803711,1681.399170 
	C2209.010742,1709.077759 2202.549316,1736.617798 2196.238770,1764.185791 
	C2194.675781,1771.014893 2195.381348,1777.029663 2201.137695,1784.016724 
	C2203.777344,1775.690796 2205.933838,1768.888428 2208.607666,1760.753296 
	C2217.528809,1735.347168 2226.539307,1709.972168 2235.353027,1684.528809 
	C2256.570557,1623.279541 2277.637451,1561.977783 2298.874023,1500.735107 
	C2323.379395,1430.066162 2348.015625,1359.442261 2372.523438,1288.774170 
	C2373.485596,1286.000000 2373.711182,1282.970581 2374.099609,1280.008789 
	C2374.099609,1280.008789 2374.060059,1280.192505 2375.263672,1279.714722 
z"/>
<path fill="#EDEDEF" opacity="1.000000" stroke="none" 
	d="
M2260.517822,1343.692871 
	C2251.631348,1328.346924 2239.266357,1317.346680 2221.767334,1312.846313 
	C2218.656006,1312.045898 2215.453613,1311.598633 2211.638184,1310.861816 
	C2211.638184,1324.936890 2211.638184,1337.979858 2211.638184,1351.022705 
	C2211.108643,1351.249512 2210.579102,1351.476318 2210.049805,1351.703125 
	C2207.413574,1347.715088 2204.537842,1343.863647 2202.178711,1339.718018 
	C2178.421631,1297.970825 2152.036133,1257.967896 2122.562500,1220.038208 
	C2083.602295,1169.899902 2040.621704,1123.675659 1990.000854,1084.965820 
	C1984.654419,1080.877563 1984.657227,1080.873901 1978.359497,1080.402710 
	C1999.351929,1117.120972 2019.991577,1153.821045 2041.306274,1190.125000 
	C2047.375610,1200.462524 2049.133301,1209.965088 2046.616333,1222.059937 
	C2038.350098,1261.779907 2031.646851,1301.823608 2024.213257,1341.718872 
	C2013.062622,1401.562866 2001.748657,1461.376465 1990.607666,1521.222290 
	C1983.727295,1558.181763 1977.065308,1595.182007 1970.239868,1632.151855 
	C1969.051147,1638.591431 1967.538208,1644.971069 1964.432861,1651.296631 
	C1963.004395,1636.709717 1961.503540,1622.129517 1960.166260,1607.534302 
	C1958.525635,1589.626953 1957.037598,1571.705566 1955.438843,1553.794434 
	C1955.232056,1551.476929 1954.650635,1549.193359 1954.429077,1546.876343 
	C1953.922729,1541.580688 1950.658691,1539.125366 1945.770264,1539.064331 
	C1931.446167,1538.885498 1917.111206,1538.691528 1902.795898,1539.077515 
	C1895.869873,1539.264282 1894.223999,1541.141968 1893.459229,1548.265381 
	C1891.504639,1566.474609 1889.795776,1584.711060 1888.111938,1602.947998 
	C1886.581665,1619.522217 1885.213745,1636.111328 1882.178467,1652.933960 
	C1880.215820,1643.395630 1878.104980,1633.884888 1876.315063,1624.314087 
	C1866.408813,1571.344482 1856.547119,1518.366455 1846.737427,1465.378784 
	C1839.893799,1428.412109 1833.235596,1391.411011 1826.355347,1354.451172 
	C1817.772827,1308.346191 1809.238770,1262.230225 1800.219482,1216.209961 
	C1798.449829,1207.180664 1801.161377,1200.137939 1805.414551,1192.731934 
	C1825.625977,1157.537720 1845.620605,1122.218994 1865.653809,1086.922729 
	C1866.715210,1085.052612 1867.424072,1082.982178 1868.584229,1080.354492 
	C1863.414429,1079.313721 1861.053833,1082.639648 1858.387939,1084.651978 
	C1834.427979,1102.739136 1812.302612,1122.898682 1791.266357,1144.293213 
	C1743.175171,1193.203247 1702.120605,1247.568726 1666.022827,1305.766602 
	C1658.301758,1318.215088 1651.058228,1330.959106 1643.537964,1343.533081 
	C1641.850952,1346.353638 1639.925903,1349.031982 1637.122803,1351.649658 
	C1634.555176,1338.383545 1637.081665,1324.985229 1635.752319,1311.183960 
	C1614.368164,1314.083618 1598.702637,1324.302490 1587.244873,1343.257690 
	C1579.060547,1353.192261 1576.407593,1364.109863 1574.227173,1375.272949 
	C1571.111450,1391.223389 1572.528198,1407.130127 1575.022827,1422.885376 
	C1579.236450,1449.498291 1583.577881,1476.115601 1588.886353,1502.525757 
	C1600.757690,1561.586670 1613.117432,1620.550781 1625.560669,1679.494629 
	C1631.746948,1708.799072 1638.572510,1737.968262 1645.052490,1767.211182 
	C1645.571411,1769.553101 1647.598511,1772.317749 1643.939453,1774.053101 
	C1633.324097,1743.613037 1622.685425,1713.181030 1612.099487,1682.730713 
	C1598.678223,1644.125122 1585.273682,1605.513794 1571.909790,1566.888428 
	C1557.021729,1523.857544 1542.228394,1480.793823 1527.318237,1437.770630 
	C1510.230103,1388.461914 1493.051758,1339.184204 1475.936646,1289.884766 
	C1474.519653,1285.803101 1473.286499,1281.657593 1472.567383,1276.948730 
	C1477.112427,1281.250977 1481.008301,1286.187378 1485.014526,1291.032715 
	C1492.260010,1299.796021 1499.988159,1308.028809 1510.846436,1312.402954 
	C1515.514648,1314.283569 1520.284424,1315.789307 1524.519043,1311.336060 
	C1529.597900,1305.724365 1535.023193,1300.385742 1539.698486,1294.455933 
	C1566.051392,1261.031372 1592.722046,1227.889282 1623.236450,1198.086182 
	C1629.628540,1191.842896 1636.446167,1186.035278 1643.419556,1179.707642 
	C1641.688354,1173.003540 1639.978638,1166.382568 1638.103149,1159.119263 
	C1647.346802,1156.280640 1656.201538,1153.630981 1665.012573,1150.842896 
	C1695.063965,1141.333862 1722.253296,1126.714355 1747.786499,1108.033081 
	C1777.524292,1086.275391 1808.684448,1066.461670 1840.325317,1045.254028 
	C1844.273315,1042.466919 1847.123291,1040.230103 1850.349243,1037.815063 
	C1850.822998,1037.378540 1850.920776,1037.120361 1851.018677,1036.862061 
	C1850.736450,1036.842896 1850.454346,1036.823730 1850.172119,1036.804688 
	C1850.177856,1037.244141 1850.183472,1037.683716 1849.511719,1037.676758 
	C1843.688477,1039.289673 1838.542725,1041.349121 1833.396851,1043.408691 
	C1803.625000,1054.872681 1773.835083,1066.290161 1744.085571,1077.812134 
	C1702.549316,1093.899048 1661.017944,1109.999390 1619.549683,1126.260254 
	C1612.713135,1128.941162 1606.247559,1130.364624 1599.709229,1125.876831 
	C1596.611694,1123.750854 1593.594971,1124.014160 1590.378662,1125.850830 
	C1577.899902,1132.976440 1566.037354,1140.929688 1556.300659,1151.626099 
	C1548.256470,1160.463379 1542.386719,1170.327393 1543.884033,1182.599731 
	C1537.986816,1185.718994 1534.738403,1182.660889 1531.177002,1179.251953 
	C1514.597290,1163.382568 1498.305054,1147.165039 1481.008911,1132.106934 
	C1467.006592,1119.916382 1451.812622,1109.077759 1436.937012,1097.919800 
	C1433.553833,1095.382080 1429.303345,1094.000488 1424.198242,1091.592163 
	C1418.139282,1089.052124 1414.571289,1090.100830 1412.505005,1095.165405 
	C1411.752441,1097.010254 1410.697266,1098.733032 1409.964233,1100.584229 
	C1395.283691,1137.657715 1379.559570,1174.362915 1366.264526,1211.927612 
	C1352.191284,1251.691040 1340.001099,1292.143188 1327.780640,1332.534180 
	C1314.003662,1378.069580 1304.062012,1424.555908 1296.125366,1471.441284 
	C1292.802002,1491.073853 1290.494263,1510.879150 1287.809326,1530.617432 
	C1287.489624,1532.968140 1287.722412,1535.403687 1284.479370,1535.729126 
	C1288.441040,1483.001465 1291.911133,1430.230713 1296.540283,1377.561768 
	C1299.537354,1343.459717 1303.791992,1309.449219 1308.254272,1275.499146 
	C1316.786865,1210.581787 1327.553833,1146.016479 1342.698364,1082.289429 
	C1353.301880,1037.670776 1365.831421,993.569275 1383.769897,951.215820 
	C1385.696899,946.666077 1388.303345,942.404114 1391.324585,938.707642 
	C1399.402954,964.132080 1409.640015,987.523132 1424.653687,1008.609924 
	C1438.396362,1027.911133 1455.119263,1043.840820 1477.273926,1053.249634 
	C1479.592163,1054.234131 1482.265503,1054.382690 1484.774170,1054.919189 
	C1489.545532,1056.378662 1494.271362,1058.014526 1499.097412,1059.262085 
	C1510.223267,1062.138184 1521.064697,1062.416260 1532.492554,1059.042236 
	C1557.367554,1051.697998 1582.518921,1045.235718 1607.721558,1039.085815 
	C1616.286499,1036.995850 1622.501465,1033.655029 1624.473511,1024.566528 
	C1624.740601,1023.335632 1625.749390,1022.265686 1626.595947,1020.809326 
	C1697.624268,1017.237000 1766.267822,1000.633789 1834.663696,982.737183 
	C1834.650757,981.914001 1834.637939,981.090820 1834.625122,980.267578 
	C1827.727783,979.197571 1820.839600,978.063904 1813.930542,977.075439 
	C1807.007690,976.084961 1800.080078,975.087708 1793.126953,974.356384 
	C1761.627319,971.043518 1730.076416,968.995300 1698.359741,969.422485 
	C1673.623291,969.755676 1649.109741,971.648865 1625.043213,977.501648 
	C1617.241577,979.398987 1610.333008,978.610474 1602.803955,975.602051 
	C1577.256836,965.393921 1553.911255,969.067688 1533.794922,988.638245 
	C1529.520508,992.796631 1525.701294,997.945740 1517.885742,994.461121 
	C1511.386353,980.538635 1504.963867,965.935425 1497.839233,951.683105 
	C1479.202271,914.400818 1459.086792,877.954102 1430.855713,846.869141 
	C1422.643066,837.826294 1412.853638,830.142395 1403.315430,822.417786 
	C1400.145386,819.850586 1395.501343,819.103394 1390.665527,816.760620 
	C1380.578369,812.293274 1379.991333,812.232849 1374.413086,820.414978 
	C1356.041382,847.362000 1337.555908,874.238953 1319.661499,901.502075 
	C1282.919800,957.479736 1248.837646,1015.070312 1217.332397,1074.146973 
	C1189.905151,1125.577026 1164.981323,1178.207153 1144.871216,1232.983154 
	C1139.958496,1246.364258 1136.152466,1260.151611 1131.837646,1273.752197 
	C1128.236572,1275.122070 1127.755493,1273.048706 1128.291626,1270.329712 
	C1129.835449,1262.500854 1131.383545,1254.668701 1133.160522,1246.890625 
	C1154.020020,1155.588623 1180.952759,1066.142700 1216.116455,979.298523 
	C1245.160034,907.568970 1279.231445,838.409180 1323.829102,774.840942 
	C1342.222534,748.623291 1362.290649,723.772461 1384.859863,701.007141 
	C1388.593872,697.240662 1392.698120,693.841431 1396.599365,690.301453 
	C1404.882568,693.418335 1408.583008,699.760437 1411.187134,707.163879 
	C1424.503784,745.023376 1442.812134,780.284546 1466.742798,812.527954 
	C1485.197998,837.393799 1507.197510,858.504822 1534.197144,874.014282 
	C1554.498779,885.676270 1576.646484,891.075073 1599.824951,893.000305 
	C1605.494629,893.471313 1609.665161,890.686829 1613.177124,887.361389 
	C1619.552490,881.324707 1625.415771,882.057495 1632.925171,885.497375 
	C1666.487061,900.871399 1702.054199,909.154907 1738.467407,914.447388 
	C1768.900879,918.870789 1799.449097,920.540100 1830.155518,920.024170 
	C1831.754395,919.997253 1833.350830,919.813782 1837.234619,919.544922 
	C1833.434204,917.327148 1831.497070,915.863281 1829.324219,914.977539 
	C1773.812134,892.348206 1718.270142,869.791992 1662.745605,847.192932 
	C1644.237183,839.659851 1625.746948,832.081421 1607.287476,824.429382 
	C1604.270264,823.178711 1601.456543,821.437500 1597.081787,819.159058 
	C1600.671875,817.650391 1602.810059,816.530396 1605.078247,815.835571 
	C1617.557617,812.013123 1629.570679,807.174744 1640.211426,799.469910 
	C1656.318481,787.807129 1664.270264,772.330505 1662.196045,752.127808 
	C1661.759033,747.871765 1660.486938,744.276184 1656.885132,741.926453 
	C1646.834961,735.370056 1636.570068,729.292358 1624.450195,727.205994 
	C1608.041382,724.381409 1601.111450,728.538208 1596.250732,744.424683 
	C1595.861694,745.696167 1595.575684,746.999207 1594.898193,749.612671 
	C1591.016113,745.346985 1587.226318,741.892029 1584.275146,737.828064 
	C1559.977905,704.368896 1527.256104,682.342163 1489.085938,667.944763 
	C1468.491455,660.176697 1446.966431,655.726379 1425.067993,653.848999 
	C1415.955322,653.067810 1408.183105,650.728638 1400.970459,642.901794 
	C1402.055664,639.353699 1402.934570,634.843323 1404.766968,630.760803 
	C1414.619995,608.807678 1430.047363,590.922913 1447.061401,574.349304 
	C1479.451172,542.797852 1516.395630,517.291870 1554.968994,494.031464 
	C1626.141235,451.113159 1701.526611,416.897064 1779.004150,386.539093 
	C1770.248169,392.323761 1761.076172,397.717072 1751.796509,402.918152 
	C1690.077026,437.510620 1630.677002,475.524933 1577.524414,522.539795 
	C1553.490723,543.798279 1531.421631,566.934265 1515.869873,595.432983 
	C1513.241333,600.249512 1511.433105,605.513550 1509.121582,610.858154 
	C1513.510742,613.727112 1516.766113,615.855042 1520.021606,617.982971 
	C1541.431763,628.707214 1563.079468,638.836548 1586.137939,645.653198 
	C1600.599976,649.928406 1615.225464,652.617981 1630.382446,651.929504 
	C1637.614746,651.601013 1641.316528,653.725769 1641.847168,660.924500 
	C1642.715088,672.699219 1650.965454,676.252014 1659.881592,677.562073 
	C1671.298950,679.239624 1683.051392,679.654968 1694.594482,679.144470 
	C1704.486084,678.706909 1714.286011,676.199585 1724.866821,675.245361 
	C1722.691284,679.290527 1719.866455,682.781250 1716.841675,686.089050 
	C1709.244141,694.397217 1702.457397,703.216309 1699.180298,714.196472 
	C1698.283569,717.201294 1696.681885,720.817688 1701.774170,722.000732 
	C1694.462280,747.742126 1699.625977,771.386047 1713.871582,793.465088 
	C1715.630371,796.190918 1717.738159,798.691528 1719.873535,801.549988 
	C1725.814331,799.590027 1731.122803,797.838623 1737.252441,795.816284 
	C1739.461548,798.971130 1741.819580,802.077393 1743.900879,805.359253 
	C1750.564453,815.866882 1758.266479,825.394104 1769.115479,831.863220 
	C1775.250244,835.521240 1781.764648,837.679749 1789.165161,835.196777 
	C1788.719238,828.509399 1788.286011,822.012207 1787.728394,813.650635 
	C1792.105469,816.664368 1795.075562,818.557312 1797.882568,820.666870 
	C1815.201660,833.682861 1832.848145,846.204285 1852.530884,855.470947 
	C1857.858521,857.979309 1863.568115,859.676575 1870.812378,860.374207 
	C1869.530273,857.670410 1868.461670,854.838745 1866.931274,852.283569 
	C1857.352661,836.291443 1847.783325,820.291321 1837.964233,804.446594 
	C1834.381714,798.665344 1833.618652,793.186951 1835.726807,786.530212 
	C1844.923340,757.493042 1856.265381,729.527527 1875.021606,705.178772 
	C1879.766479,699.018982 1885.438232,693.573120 1890.684082,687.799133 
	C1891.496704,688.255493 1892.309204,688.711853 1893.121826,689.168152 
	C1891.953613,693.058289 1891.010986,697.033691 1889.578003,700.823730 
	C1883.312500,717.396179 1877.809570,734.092346 1877.742065,752.122925 
	C1877.700073,763.368896 1881.915405,772.103760 1891.498169,778.147644 
	C1901.908203,784.713318 1912.300415,791.307251 1923.691284,798.515930 
	C1935.749756,790.692627 1948.377319,783.337891 1960.021240,774.662598 
	C1968.337524,768.466614 1970.335815,758.682495 1969.581421,748.545105 
	C1968.331665,731.752136 1963.618286,715.838501 1957.310547,700.315430 
	C1955.851929,696.726135 1954.917603,692.923767 1953.742188,689.219360 
	C1954.331665,688.793518 1954.921143,688.367676 1955.510498,687.941833 
	C1958.790405,690.939880 1962.354004,693.684082 1965.303345,696.978027 
	C1981.513062,715.082520 1992.598511,736.270569 2001.537109,758.641174 
	C2004.988647,767.279541 2007.390137,776.335754 2010.797852,784.993896 
	C2013.583252,792.071228 2013.131226,798.250183 2009.031616,804.776001 
	C1999.470581,819.995544 1990.349976,835.492065 1981.078369,850.892761 
	C1979.394409,853.690002 1977.840210,856.565430 1975.900513,859.977417 
	C1982.387817,861.672241 1987.075317,858.974548 1991.737793,856.887573 
	C2012.539917,847.575867 2031.003784,834.498901 2049.128662,820.894043 
	C2051.964844,818.765381 2054.892578,816.759338 2059.116211,813.739929 
	C2058.658936,821.938721 2058.298584,828.403564 2057.919678,835.197449 
	C2065.507812,837.599731 2071.978027,835.533691 2078.064941,831.867188 
	C2088.883057,825.351074 2096.623047,815.844482 2103.257324,805.314697 
	C2105.345215,802.000854 2107.521973,798.742859 2109.810791,795.224487 
	C2115.853516,797.402100 2121.121826,799.300659 2127.142334,801.470337 
	C2135.960938,790.091858 2143.954834,778.497742 2147.083984,762.939575 
	C2148.995850,759.998352 2150.415527,758.021790 2150.806885,755.859070 
	C2154.131348,737.495728 2153.450439,719.466125 2143.107666,703.298828 
	C2138.002441,695.318359 2131.355225,688.296326 2125.131592,681.077026 
	C2123.378906,679.043823 2121.027100,677.679932 2122.282471,674.507263 
	C2138.280762,677.754333 2154.363525,680.962158 2170.746582,679.761902 
	C2178.911133,679.163757 2187.045166,677.049438 2194.988037,674.872864 
	C2201.158447,673.181824 2204.925781,668.822571 2206.005615,662.051331 
	C2206.558350,658.583374 2208.602783,655.353271 2209.999023,651.952393 
	C2253.545898,654.021729 2290.673584,636.144348 2328.650146,616.706055 
	C2332.463867,614.227722 2335.153809,612.388428 2338.601807,610.030640 
	C2335.546631,603.970886 2332.975830,598.248352 2329.876465,592.828064 
	C2311.736572,561.105103 2285.884766,536.076172 2258.468994,512.737488 
	C2218.338135,478.574707 2174.687500,449.270599 2129.265137,422.612244 
	C2112.331787,412.674164 2095.204346,403.067322 2078.216553,393.221130 
	C2076.972412,392.499908 2073.629883,392.170990 2076.459473,389.362671 
	C2115.443115,406.438904 2154.813721,422.693359 2193.308594,440.808167 
	C2237.275391,461.497833 2279.937988,484.785797 2320.476562,511.741791 
	C2356.629150,535.781189 2391.209961,561.703918 2419.402344,595.180603 
	C2428.876221,606.430420 2437.303955,618.385803 2442.904297,632.091248 
	C2444.386963,635.719910 2445.279053,639.589844 2446.342529,643.025452 
	C2440.123291,650.183411 2433.410645,653.043152 2424.314453,653.816650 
	C2370.008789,658.435181 2321.380371,676.949341 2281.850098,715.680908 
	C2274.052490,723.320740 2267.628418,732.362427 2259.480469,741.220886 
	C2257.352295,739.085022 2256.222168,736.518188 2255.293701,733.880432 
	C2252.674072,726.439331 2247.902832,720.720703 2239.833008,720.454285 
	C2224.570801,719.950562 2210.942871,724.830139 2199.776855,735.656006 
	C2199.776855,735.656006 2199.169922,736.154785 2198.185547,736.084229 
	C2196.019531,737.142822 2194.838379,738.271973 2193.656982,739.401123 
	C2186.757080,742.683167 2184.598389,748.608582 2184.318115,755.737549 
	C2183.748535,770.240723 2188.816650,782.453308 2199.012207,792.631348 
	C2210.669922,804.269409 2225.288086,810.526367 2240.642822,815.421814 
	C2243.458008,816.319336 2246.286621,817.175537 2251.175293,818.691650 
	C2245.876465,821.510986 2242.389404,823.775879 2238.607178,825.317017 
	C2186.173828,846.683472 2133.702881,867.957825 2081.234619,889.238770 
	C2060.247803,897.750854 2039.237671,906.204773 2018.262695,914.745483 
	C2016.225464,915.574951 2014.362061,916.831055 2010.683228,918.833435 
	C2013.541504,919.495605 2014.605957,919.940979 2015.678711,919.962158 
	C2074.723389,921.127441 2132.713867,914.582153 2188.917969,895.664246 
	C2198.985107,892.275696 2208.771240,887.972229 2218.474609,883.617432 
	C2223.224854,881.485413 2227.504883,880.714355 2231.145752,884.826904 
	C2239.409912,894.161621 2249.599121,893.125488 2260.506104,891.606018 
	C2295.897949,886.675781 2325.109619,869.903931 2350.714600,845.854126 
	C2378.759277,819.513000 2399.450928,787.879578 2416.211914,753.595093 
	C2423.485596,738.717102 2429.860352,723.349487 2435.736084,707.860168 
	C2438.573730,700.379395 2441.769775,693.895691 2449.915039,689.725525 
	C2452.499512,691.987488 2455.599854,694.426697 2458.387939,697.182312 
	C2493.418945,731.805603 2522.511719,771.064880 2548.239014,812.901306 
	C2587.432617,876.635437 2618.124512,944.425537 2644.502441,1014.318176 
	C2667.447510,1075.115845 2686.435547,1137.125000 2702.607422,1200.015991 
	C2707.577881,1219.346313 2711.675537,1238.901245 2715.596680,1258.887695 
	C2713.923096,1257.009644 2712.759521,1254.624634 2711.738281,1252.180298 
	C2698.008301,1219.327881 2685.612793,1185.837524 2670.250244,1153.767944 
	C2651.133057,1113.859619 2630.272461,1074.735474 2608.908936,1035.964722 
	C2570.474121,966.212036 2527.354736,899.326355 2482.185059,833.761108 
	C2477.139160,826.437134 2471.758789,819.343872 2466.068115,811.502258 
	C2462.177734,813.681152 2459.116455,815.395813 2456.055176,817.110474 
	C2447.989502,817.993164 2441.981689,822.888550 2436.045654,827.694214 
	C2415.873047,844.024902 2400.371338,864.415527 2386.313477,885.958618 
	C2365.167969,918.362732 2347.633545,952.709961 2332.369873,988.218933 
	C2330.175781,993.323364 2327.695801,996.909851 2319.496094,996.015015 
	C2317.998047,994.232788 2315.691895,990.900391 2312.818359,988.164062 
	C2292.517334,968.833679 2269.083252,965.489929 2243.657227,975.857727 
	C2236.132812,978.926025 2229.428711,979.637756 2221.521240,977.550415 
	C2200.179199,971.916809 2178.260742,970.027283 2156.235596,969.539917 
	C2109.140381,968.497742 2062.375977,972.121948 2015.901733,979.698914 
	C2014.675293,979.898865 2013.466553,980.207275 2012.097168,981.337402 
	C2045.815796,992.256287 2080.290283,1000.026672 2114.946777,1006.939575 
	C2149.886719,1013.908997 2185.034912,1019.637573 2220.783936,1020.533081 
	C2221.647217,1021.938232 2222.711182,1022.971619 2222.950439,1024.169678 
	C2224.837402,1033.615845 2231.136475,1037.195312 2240.059570,1039.376099 
	C2266.554932,1045.851807 2292.791260,1053.380737 2319.255859,1059.989868 
	C2325.226562,1061.480957 2331.818359,1061.794922 2337.933838,1061.062744 
	C2345.356201,1060.173950 2352.577148,1057.601562 2361.239014,1055.733398 
	C2363.885254,1054.802124 2365.177979,1053.895020 2366.470459,1052.987793 
	C2367.155029,1052.656372 2367.839600,1052.324951 2369.784668,1051.975342 
	C2389.414551,1045.207031 2403.468506,1032.632324 2415.598633,1017.891357 
	C2432.667480,997.148865 2444.673096,973.570129 2453.044922,948.062683 
	C2454.088623,944.883484 2456.697266,942.218079 2458.580566,939.314636 
	C2466.366699,959.080078 2475.085693,978.535950 2481.765137,998.668518 
	C2502.128418,1060.048462 2515.409180,1123.166382 2526.252686,1186.838745 
	C2538.942139,1261.350952 2548.238037,1336.282959 2554.436279,1411.605225 
	C2556.810791,1440.463867 2559.106445,1469.329102 2560.821289,1498.965088 
	C2559.478516,1499.817139 2558.752197,1499.895264 2557.954346,1499.144531 
	C2555.326904,1483.582397 2552.792480,1468.845337 2550.211670,1454.116455 
	C2542.049805,1407.538696 2530.088623,1361.855591 2516.791260,1316.549805 
	C2501.517090,1264.510132 2483.793213,1213.260864 2463.787109,1162.838989 
	C2454.955322,1140.580444 2445.514893,1118.558716 2436.062744,1096.553223 
	C2432.839111,1089.047241 2432.436768,1089.219971 2424.001953,1091.972656 
	C2417.000244,1095.636597 2409.502197,1098.591064 2403.081787,1103.085571 
	C2373.262939,1123.960083 2347.302734,1149.317993 2321.334473,1174.635498 
	C2319.190430,1176.725708 2317.019531,1178.789795 2314.929199,1180.932617 
	C2312.069580,1183.864014 2308.880615,1184.727173 2304.585938,1182.563843 
	C2305.255127,1165.852173 2295.817871,1154.011841 2283.796875,1144.014282 
	C2276.161865,1137.664307 2267.546143,1132.495117 2259.382812,1126.778320 
	C2255.489502,1124.051758 2251.568604,1123.333984 2247.382568,1126.214355 
	C2241.110352,1130.529907 2234.854248,1128.754883 2228.460938,1126.261841 
	C2177.365479,1106.337891 2126.273438,1086.404175 2075.106445,1066.665771 
	C2054.390625,1058.674316 2033.484009,1051.178345 2012.690918,1043.385620 
	C2011.513428,1042.944214 2010.579102,1041.853882 2008.234863,1040.361816 
	C2003.804077,1039.206543 2000.670288,1038.754761 1997.836914,1038.037354 
	C1997.885010,1037.624512 1997.632690,1037.477295 1997.380371,1037.330078 
	C1997.501953,1037.617920 1997.623657,1037.905762 1998.107666,1038.739014 
	C2001.447388,1041.064331 2004.424683,1042.844238 2007.401978,1044.624268 
	C2043.620361,1069.450562 2079.945312,1094.123169 2116.019043,1119.158081 
	C2139.594482,1135.519043 2165.876221,1145.632202 2193.015869,1153.967041 
	C2198.681396,1155.707153 2204.381836,1157.332520 2210.869141,1159.247681 
	C2208.652588,1166.308716 2206.688965,1172.564087 2204.771729,1178.671021 
	C2205.398438,1179.830933 2205.662842,1180.941162 2206.364990,1181.530396 
	C2240.527588,1210.205933 2268.375488,1244.687866 2296.190918,1279.193115 
	C2303.923096,1288.784668 2311.433594,1298.554688 2319.112061,1308.190063 
	C2319.909912,1309.191284 2321.159424,1309.832397 2323.151855,1311.616211 
	C2328.995605,1315.271362 2333.677979,1314.099609 2338.424072,1312.011963 
	C2350.460693,1306.717651 2358.514648,1296.977783 2366.646240,1287.239746 
	C2368.869141,1284.577759 2371.718506,1282.438965 2374.280273,1280.060059 
	C2373.711182,1282.970581 2373.485596,1286.000000 2372.523438,1288.774170 
	C2348.015625,1359.442261 2323.379395,1430.066162 2298.874023,1500.735107 
	C2277.637451,1561.977783 2256.570557,1623.279541 2235.353027,1684.528809 
	C2226.539307,1709.972168 2217.528809,1735.347168 2207.640381,1761.104492 
	C2206.836670,1758.870850 2206.670898,1756.213989 2207.217041,1753.712524 
	C2210.974365,1736.507324 2214.981201,1719.356323 2218.719238,1702.147095 
	C2228.169922,1658.639282 2238.074219,1615.220215 2246.773682,1571.561646 
	C2257.873047,1515.861328 2269.798828,1460.254150 2275.230225,1403.603271 
	C2277.031982,1384.812622 2274.088623,1366.432861 2265.560547,1349.312500 
	C2264.478760,1347.140747 2262.227295,1345.551758 2260.517822,1343.692871 
z"/>
<path fill="#8C8C8E" opacity="1.000000" stroke="none" 
	d="
M2456.367676,817.753052 
	C2459.116455,815.395813 2462.177734,813.681152 2466.068115,811.502258 
	C2471.758789,819.343872 2477.139160,826.437134 2482.185059,833.761108 
	C2527.354736,899.326355 2570.474121,966.212036 2608.908936,1035.964722 
	C2630.272461,1074.735474 2651.133057,1113.859619 2670.250244,1153.767944 
	C2685.612793,1185.837524 2698.008301,1219.327881 2711.738281,1252.180298 
	C2712.759521,1254.624634 2713.923096,1257.009644 2715.683594,1259.720093 
	C2717.610840,1264.654419 2718.875244,1269.290771 2720.178467,1274.069214 
	C2707.641602,1275.352905 2704.770508,1273.877563 2701.377930,1263.950806 
	C2669.913330,1171.872437 2624.854492,1086.315918 2575.875977,1002.668335 
	C2541.068359,943.221863 2503.788086,885.343323 2464.200439,828.959167 
	C2461.717041,825.421753 2459.187988,821.916077 2456.367676,817.753052 
z"/>
<path fill="#8D8C8F" opacity="1.000000" stroke="none" 
	d="
M1132.617432,1273.941284 
	C1136.152466,1260.151611 1139.958496,1246.364258 1144.871216,1232.983154 
	C1164.981323,1178.207153 1189.905151,1125.577026 1217.332397,1074.146973 
	C1248.837646,1015.070312 1282.919800,957.479736 1319.661499,901.502075 
	C1337.555908,874.238953 1356.041382,847.362000 1374.413086,820.414978 
	C1379.991333,812.232849 1380.578369,812.293274 1389.897705,816.714966 
	C1383.411011,827.333008 1376.958984,837.324280 1370.220703,847.118652 
	C1319.300171,921.133789 1272.048340,997.411194 1229.429443,1076.505371 
	C1202.450684,1126.573730 1177.840576,1177.792847 1157.495361,1230.965942 
	C1153.222168,1242.134033 1149.221436,1253.422852 1145.588745,1264.813354 
	C1143.584351,1271.098267 1140.023315,1274.370972 1132.617432,1273.941284 
z"/>
<path fill="#8B8B8D" opacity="1.000000" stroke="none" 
	d="
M2424.292969,1092.628540 
	C2432.436768,1089.219971 2432.839111,1089.047241 2436.062744,1096.553223 
	C2445.514893,1118.558716 2454.955322,1140.580444 2463.787109,1162.838989 
	C2483.793213,1213.260864 2501.517090,1264.510132 2516.791260,1316.549805 
	C2530.088623,1361.855591 2542.049805,1407.538696 2550.211670,1454.116455 
	C2552.792480,1468.845337 2555.326904,1483.582397 2557.884766,1500.030884 
	C2558.682129,1510.671875 2559.368896,1519.610229 2560.399414,1528.508667 
	C2560.539795,1529.720337 2562.401611,1530.732666 2563.466309,1531.837280 
	C2563.466309,1538.303955 2563.466309,1544.770630 2563.466309,1551.723999 
	C2554.923584,1549.269897 2551.125488,1544.186279 2550.395264,1535.850952 
	C2542.894043,1450.213501 2522.389648,1367.320068 2497.011230,1285.495117 
	C2478.867676,1226.997314 2457.466553,1169.678711 2433.665283,1113.254517 
	C2430.824219,1106.519409 2427.620117,1099.937378 2424.292969,1092.628540 
z"/>
<path fill="#8C8C8F" opacity="1.000000" stroke="none" 
	d="
M2076.053223,388.788879 
	C2073.629883,392.170990 2076.972412,392.499908 2078.216553,393.221130 
	C2095.204346,403.067322 2112.331787,412.674164 2129.265137,422.612244 
	C2174.687500,449.270599 2218.338135,478.574707 2258.468994,512.737488 
	C2285.884766,536.076172 2311.736572,561.105103 2329.876465,592.828064 
	C2332.975830,598.248352 2335.546631,603.970886 2338.601807,610.030640 
	C2335.153809,612.388428 2332.463867,614.227722 2329.082031,616.147766 
	C2318.974609,593.307007 2303.563965,574.570984 2286.675293,556.936829 
	C2252.358887,521.106079 2212.701904,491.879761 2171.495361,464.651978 
	C2134.510498,440.213531 2096.263916,417.889496 2056.916504,397.459656 
	C2047.023193,392.322876 2046.989014,392.167694 2051.769531,379.236511 
	C2059.718018,382.225281 2067.682617,385.220154 2076.053223,388.788879 
z"/>
<path fill="#8C8C8E" opacity="1.000000" stroke="none" 
	d="
M1519.700928,617.261230 
	C1516.766113,615.855042 1513.510742,613.727112 1509.121582,610.858154 
	C1511.433105,605.513550 1513.241333,600.249512 1515.869873,595.432983 
	C1531.421631,566.934265 1553.490723,543.798279 1577.524414,522.539795 
	C1630.677002,475.524933 1690.077026,437.510620 1751.796509,402.918152 
	C1761.076172,397.717072 1770.248169,392.323761 1779.740601,386.381622 
	C1784.727295,383.636841 1789.443481,381.529816 1795.499878,378.824036 
	C1796.555176,384.045898 1797.364746,388.051147 1798.321655,392.785980 
	C1787.143921,398.847076 1776.360718,404.607666 1765.657104,410.512695 
	C1711.143433,440.587189 1658.382690,473.374390 1609.641479,512.279724 
	C1583.070068,533.489075 1557.868896,556.181763 1537.602905,583.734070 
	C1530.167480,593.842834 1522.338623,603.878662 1519.700928,617.261230 
z"/>
<path fill="#8C8C8E" opacity="1.000000" stroke="none" 
	d="
M1284.182617,1536.586914 
	C1287.722412,1535.403687 1287.489624,1532.968140 1287.809326,1530.617432 
	C1290.494263,1510.879150 1292.802002,1491.073853 1296.125366,1471.441284 
	C1304.062012,1424.555908 1314.003662,1378.069580 1327.780640,1332.534180 
	C1340.001099,1292.143188 1352.191284,1251.691040 1366.264526,1211.927612 
	C1379.559570,1174.362915 1395.283691,1137.657715 1409.964233,1100.584229 
	C1410.697266,1098.733032 1411.752441,1097.010254 1412.505005,1095.165405 
	C1414.571289,1090.100830 1418.139282,1089.052124 1423.475586,1091.579834 
	C1414.652100,1114.101318 1404.584595,1135.870728 1396.103760,1158.241333 
	C1382.312134,1194.620850 1368.817749,1231.147705 1356.551392,1268.061890 
	C1340.813110,1315.424927 1327.068970,1363.431885 1317.228516,1412.415649 
	C1311.268433,1442.082642 1306.187378,1471.932617 1301.133423,1501.771851 
	C1299.358154,1512.253662 1298.512573,1522.928101 1297.849731,1533.552368 
	C1297.296997,1542.411133 1293.942139,1548.754639 1283.885742,1552.116821 
	C1283.885742,1546.929565 1283.885742,1542.187134 1284.182617,1536.586914 
z"/>
<path fill="#8B8B8D" opacity="1.000000" stroke="none" 
	d="
M2260.350586,1344.462036 
	C2262.227295,1345.551758 2264.478760,1347.140747 2265.560547,1349.312500 
	C2274.088623,1366.432861 2277.031982,1384.812622 2275.230225,1403.603271 
	C2269.798828,1460.254150 2257.873047,1515.861328 2246.773682,1571.561646 
	C2238.074219,1615.220215 2228.169922,1658.639282 2218.719238,1702.147095 
	C2214.981201,1719.356323 2210.974365,1736.507324 2207.217041,1753.712524 
	C2206.670898,1756.213989 2206.836670,1758.870850 2207.381836,1761.770996 
	C2205.933838,1768.888428 2203.777344,1775.690796 2201.137695,1784.016724 
	C2195.381348,1777.029663 2194.675781,1771.014893 2196.238770,1764.185791 
	C2202.549316,1736.617798 2209.010742,1709.077759 2214.803711,1681.399170 
	C2228.640625,1615.285156 2242.421143,1549.156372 2255.605225,1482.910400 
	C2260.342285,1459.107544 2263.683105,1435.003418 2266.970459,1410.942383 
	C2270.023438,1388.596436 2269.399658,1366.414062 2260.350586,1344.462036 
z"/>
<path fill="#8C8C8D" opacity="1.000000" stroke="none" 
	d="
M1643.843018,1774.769775 
	C1647.598511,1772.317749 1645.571411,1769.553101 1645.052490,1767.211182 
	C1638.572510,1737.968262 1631.746948,1708.799072 1625.560669,1679.494629 
	C1613.117432,1620.550781 1600.757690,1561.586670 1588.886353,1502.525757 
	C1583.577881,1476.115601 1579.236450,1449.498291 1575.022827,1422.885376 
	C1572.528198,1407.130127 1571.111450,1391.223389 1574.227173,1375.272949 
	C1576.407593,1364.109863 1579.060547,1353.192261 1586.873047,1343.835693 
	C1585.559204,1351.029297 1583.028320,1358.237793 1581.664185,1365.660767 
	C1577.821045,1386.571655 1579.496826,1407.568115 1583.141113,1428.232910 
	C1591.858154,1477.661255 1600.554932,1527.116577 1610.698730,1576.264038 
	C1623.663574,1639.079956 1637.960938,1701.622192 1651.926392,1764.228271 
	C1653.495728,1771.263794 1652.706909,1777.304077 1648.443604,1783.505005 
	C1645.034790,1781.886963 1645.036133,1778.265259 1643.843018,1774.769775 
z"/>
<path fill="#8C8B8D" opacity="1.000000" stroke="none" 
	d="
M2458.424316,938.626099 
	C2456.697266,942.218079 2454.088623,944.883484 2453.044922,948.062683 
	C2444.673096,973.570129 2432.667480,997.148865 2415.598633,1017.891357 
	C2403.468506,1032.632324 2389.414551,1045.207031 2370.314697,1051.763916 
	C2373.526611,1048.651245 2377.483154,1045.749878 2381.410156,1042.808838 
	C2405.531250,1024.742554 2421.813477,1000.691528 2433.777100,973.492188 
	C2438.055908,963.764404 2441.379150,953.618774 2445.224365,943.697083 
	C2447.763428,937.145752 2449.909668,936.257324 2458.424316,938.626099 
z"/>
<path fill="#8A8A8C" opacity="1.000000" stroke="none" 
	d="
M1484.486938,1054.317627 
	C1482.265503,1054.382690 1479.592163,1054.234131 1477.273926,1053.249634 
	C1455.119263,1043.840820 1438.396362,1027.911133 1424.653687,1008.609924 
	C1409.640015,987.523132 1399.402954,964.132080 1392.027832,938.637817 
	C1400.656128,938.253662 1400.811646,938.203613 1403.119751,945.374390 
	C1409.953491,966.605530 1418.659546,986.925720 1431.077026,1005.579956 
	C1444.752075,1026.123535 1461.753784,1042.899292 1484.486938,1054.317627 
z"/>
<path fill="#8B8B8C" opacity="1.000000" stroke="none" 
	d="
M2121.562500,674.205322 
	C2121.027100,677.679932 2123.378906,679.043823 2125.131592,681.077026 
	C2131.355225,688.296326 2138.002441,695.318359 2143.107666,703.298828 
	C2153.450439,719.466125 2154.131348,737.495728 2150.806885,755.859070 
	C2150.415527,758.021790 2148.995850,759.998352 2147.316162,762.201904 
	C2154.115479,727.547363 2138.573486,702.301331 2112.682617,681.536743 
	C2113.185303,676.159912 2115.221680,673.107788 2121.562500,674.205322 
z"/>
<path fill="#8B8B8D" opacity="1.000000" stroke="none" 
	d="
M2374.189941,1280.034424 
	C2371.718506,1282.438965 2368.869141,1284.577759 2366.646240,1287.239746 
	C2358.514648,1296.977783 2350.460693,1306.717651 2338.424072,1312.011963 
	C2333.677979,1314.099609 2328.995605,1315.271362 2323.774658,1311.948853 
	C2340.262939,1305.622314 2351.046875,1292.820068 2361.149414,1279.252563 
	C2364.264893,1275.068604 2367.148193,1270.712158 2370.263916,1266.254517 
	C2375.583252,1267.523193 2380.250488,1268.328247 2376.259277,1275.974854 
	C2374.814697,1277.919678 2374.437500,1279.056152 2374.060059,1280.192505 
	C2374.060059,1280.192505 2374.099609,1280.008789 2374.189941,1280.034424 
z"/>
<path fill="#8B8B8D" opacity="1.000000" stroke="none" 
	d="
M1523.912354,1310.829834 
	C1520.284424,1315.789307 1515.514648,1314.283569 1510.846436,1312.402954 
	C1499.988159,1308.028809 1492.260010,1299.796021 1485.014526,1291.032715 
	C1481.008301,1286.187378 1477.112427,1281.250977 1472.501221,1276.174072 
	C1469.865845,1269.744141 1469.865845,1269.744141 1477.942261,1266.866821 
	C1480.237305,1270.001831 1482.578857,1273.532593 1485.254639,1276.788452 
	C1491.351440,1284.206543 1496.969971,1292.196289 1504.013184,1298.600708 
	C1509.478271,1303.570190 1516.805786,1306.491699 1523.912354,1310.829834 
z"/>
<path fill="#8B8B8D" opacity="1.000000" stroke="none" 
	d="
M2200.532227,735.765991 
	C2210.942871,724.830139 2224.570801,719.950562 2239.833008,720.454285 
	C2247.902832,720.720703 2252.674072,726.439331 2255.293701,733.880432 
	C2256.222168,736.518188 2257.352295,739.085022 2259.110596,741.779236 
	C2257.449951,744.713074 2255.068604,747.551941 2251.730225,751.531738 
	C2250.302246,746.594849 2249.568115,743.465332 2248.495117,740.456604 
	C2245.252197,731.363708 2240.181152,727.210449 2230.673096,727.724854 
	C2224.188721,728.075745 2217.746094,730.056274 2211.397949,731.735474 
	C2207.907227,732.658813 2204.650146,734.466797 2200.532227,735.765991 
z"/>
<path fill="#8E8E8F" opacity="1.000000" stroke="none" 
	d="
M1702.328003,721.589600 
	C1696.681885,720.817688 1698.283569,717.201294 1699.180298,714.196472 
	C1702.457397,703.216309 1709.244141,694.397217 1716.841675,686.089050 
	C1719.866455,682.781250 1722.691284,679.290527 1725.649902,675.220215 
	C1731.188599,672.613403 1732.720459,676.189697 1734.185059,681.525146 
	C1721.207153,692.244934 1709.371582,704.685303 1702.328003,721.589600 
z"/>
<path fill="#BABABA" opacity="1.000000" stroke="none" 
	d="
M2563.494141,1530.939453 
	C2562.401611,1530.732666 2560.539795,1529.720337 2560.399414,1528.508667 
	C2559.368896,1519.610229 2558.682129,1510.671875 2557.956543,1500.859619 
	C2558.752197,1499.895264 2559.478516,1499.817139 2560.754395,1499.778076 
	C2562.043701,1509.891846 2562.782959,1519.966675 2563.494141,1530.939453 
z"/>
<path fill="#4D4D4E" opacity="1.000000" stroke="none" 
	d="
M1849.973267,1037.993286 
	C1847.123291,1040.230103 1844.273315,1042.466919 1840.946045,1044.675415 
	C1839.305176,1044.355103 1838.141479,1044.063110 1835.187256,1043.589844 
	C1838.542725,1041.349121 1843.688477,1039.289673 1849.457031,1037.645630 
	C1850.079590,1038.060913 1849.973267,1037.993286 1849.973267,1037.993286 
z"/>
<path fill="#525254" opacity="1.000000" stroke="none" 
	d="
M2007.450684,1043.586792 
	C2004.424683,1042.844238 2001.447388,1041.064331 1998.055298,1038.766113 
	C1997.640625,1038.247803 1997.536377,1038.302979 1997.536377,1038.302979 
	C2000.670288,1038.754761 2003.804077,1039.206543 2007.477905,1040.098145 
	C2007.845093,1041.208496 2007.672241,1041.879028 2007.450684,1043.586792 
z"/>
<path fill="#8C8B8D" opacity="1.000000" stroke="none" 
	d="
M2365.880859,1052.780396 
	C2365.177979,1053.895020 2363.885254,1054.802124 2361.984863,1055.490479 
	C2362.681885,1054.372070 2363.986572,1053.472412 2365.880859,1052.780396 
z"/>
<path fill="#8B8B8D" opacity="1.000000" stroke="none" 
	d="
M2194.270996,739.528809 
	C2194.838379,738.271973 2196.019531,737.142822 2197.828125,736.247131 
	C2197.265137,737.539246 2196.075195,738.597900 2194.270996,739.528809 
z"/>
<path fill="#EDEDEF" opacity="1.000000" stroke="none" 
	d="
M2374.661865,1279.953613 
	C2374.437500,1279.056152 2374.814697,1277.919678 2375.666504,1276.390137 
	C2375.848633,1277.236206 2375.556152,1278.475464 2374.661865,1279.953613 
z"/>
<path fill="#525254" opacity="1.000000" stroke="none" 
	d="
M1997.692871,1038.220703 
	C1997.623657,1037.905762 1997.501953,1037.617920 1997.380371,1037.330078 
	C1997.632690,1037.477295 1997.885010,1037.624512 1997.836914,1038.037354 
	C1997.536377,1038.302979 1997.640625,1038.247803 1997.692871,1038.220703 
z"/>
<path fill="#4D4D4E" opacity="1.000000" stroke="none" 
	d="
M1850.134277,1038.092041 
	C1850.183472,1037.683716 1850.177856,1037.244141 1850.172119,1036.804688 
	C1850.454346,1036.823730 1850.736450,1036.842896 1851.018677,1036.862061 
	C1850.920776,1037.120361 1850.822998,1037.378540 1850.349243,1037.815063 
	C1849.973267,1037.993286 1850.079590,1038.060913 1850.134277,1038.092041 
z"/>
</svg>